<?xml version="1.0" encoding="UTF-8" standalone="no"?>
<!DOCTYPE svg PUBLIC "-//W3C//DTD SVG 1.1//EN" "http://www.w3.org/Graphics/SVG/1.1/DTD/svg11.dtd">
<svg width="100%" height="100%" viewBox="0 0 1980 389" version="1.1" xmlns="http://www.w3.org/2000/svg" xmlns:xlink="http://www.w3.org/1999/xlink" xml:space="preserve" xmlns:serif="http://www.serif.com/" style="fill-rule:evenodd;clip-rule:evenodd;stroke-linejoin:round;stroke-miterlimit:2;">
    <g transform="matrix(1,0,0,1,-162.582447,-1782.019704)">
        <g>
            <g>
                <g transform="matrix(3.038994,0,0,1.24729,-476.119464,-358.273602)">
                    <path d="M243.536,1962.981L232.129,2027.8L210.169,2027.8L261.834,1747.8L282.912,1747.8L334.721,2027.8L312.386,2027.8L300.979,1962.981L243.536,1962.981ZM293.793,1922.144L272.258,1799.771L250.723,1922.144L293.793,1922.144Z" style="fill:rgb(72,72,72);"/>
                </g>
                <g transform="matrix(3.038994,0,0,1.24729,-476.119464,-358.273602)">
                    <path d="M349.392,2027.8L349.392,1747.8L399.6,1747.8C412.024,1747.8 422.94,1753.641 432.347,1765.322C441.755,1777.003 449.099,1793.302 454.381,1814.219C459.662,1835.135 462.303,1859.662 462.303,1887.8C462.303,1915.904 459.662,1940.423 454.381,1961.356C449.099,1982.29 441.755,1998.597 432.347,2010.278C422.94,2021.959 412.024,2027.8 399.6,2027.8L349.392,2027.8ZM370.698,1983.806L398.528,1983.806C407.145,1983.806 414.602,1979.821 420.899,1971.85C427.195,1963.879 432.089,1952.689 435.578,1938.278C439.068,1923.868 440.812,1907.042 440.812,1887.8C440.812,1868.292 439.068,1851.399 435.578,1837.122C432.089,1822.845 427.195,1811.721 420.899,1803.75C414.602,1795.779 407.145,1791.794 398.528,1791.794L370.698,1791.794L370.698,1983.806Z" style="fill:rgb(72,72,72);fill-rule:nonzero;"/>
                </g>
                <g transform="matrix(3.038994,0,0,1.24729,-476.119464,-358.273602)">
                    <path d="M644.521,1946.256L644.521,2027.8L623.214,2027.8L623.214,1747.8L670.18,1747.8C685.515,1747.8 697.54,1756.628 706.257,1774.284C714.973,1791.941 719.331,1816.34 719.331,1847.481C719.331,1867.919 717.364,1885.531 713.43,1900.319C709.496,1915.106 703.878,1926.459 696.577,1934.378C696.04,1934.961 695.495,1935.522 694.942,1936.062L721.366,2027.8L698.292,2027.8L674.876,1945.988C673.414,1946.167 671.919,1946.256 670.393,1946.256L644.521,1946.256ZM644.521,1903.263L669.503,1903.263C678.867,1903.263 685.932,1898.356 690.696,1888.544C695.461,1878.731 697.843,1865.044 697.843,1847.481C697.843,1829.685 695.461,1815.939 690.696,1806.241C685.932,1796.543 678.867,1791.694 669.503,1791.694L644.521,1791.694L644.521,1903.263Z" style="fill:rgb(72,72,72);"/>
                </g>
                <g transform="matrix(3.038994,0,0,1.24729,-476.119464,-363.215987)">
                    <path d="M814.918,2031.763C805.954,2031.763 797.365,2028.631 789.153,2022.369C780.941,2016.106 774.411,2008.013 769.563,1998.087L777.038,1957.844C781.652,1966.74 787.348,1974.101 794.127,1979.928C800.906,1985.755 807.851,1988.669 814.962,1988.669C820.969,1988.669 825.826,1987.082 829.533,1983.909C833.24,1980.736 835.967,1976.391 837.715,1970.872C839.463,1965.353 840.336,1959.138 840.336,1952.225C840.336,1943.675 839.092,1936.83 836.603,1931.691C834.114,1926.551 830.862,1922.401 826.847,1919.241C822.833,1916.08 818.391,1913.193 813.523,1910.578C808.654,1907.964 803.782,1904.848 798.906,1901.231C794.031,1897.615 789.586,1892.914 785.572,1887.128C781.559,1881.343 778.307,1873.682 775.818,1864.147C773.329,1854.611 772.085,1842.377 772.085,1827.444C772.085,1812.198 773.749,1798.254 777.077,1785.612C780.404,1772.971 785.488,1762.848 792.327,1755.244C799.165,1747.64 807.828,1743.838 818.314,1743.838C825.227,1743.838 832.078,1745.954 838.868,1750.188C845.658,1754.421 851.586,1760.554 856.651,1768.587L849.856,1809.125C844.736,1801.496 839.45,1795.89 833.999,1792.306C828.548,1788.723 823.258,1786.931 818.13,1786.931C812.312,1786.931 807.546,1788.66 803.831,1792.119C800.117,1795.577 797.414,1800.148 795.722,1805.831C794.029,1811.515 793.183,1817.931 793.183,1825.081C793.183,1833.594 794.428,1840.411 796.917,1845.534C799.406,1850.657 802.657,1854.732 806.671,1857.759C810.685,1860.786 815.129,1863.657 820.005,1866.372C824.88,1869.086 829.752,1872.194 834.621,1875.694C839.49,1879.194 843.932,1883.778 847.946,1889.447C851.961,1895.116 855.212,1902.709 857.701,1912.228C860.19,1921.747 861.435,1933.84 861.435,1948.506C861.435,1963.485 859.747,1977.295 856.371,1989.934C852.996,2002.574 847.868,2012.705 840.988,2020.328C834.108,2027.951 825.418,2031.763 814.918,2031.763Z" style="fill:rgb(72,72,72);fill-rule:nonzero;"/>
                </g>
                <g transform="matrix(1,0,0,1,-1115,-262)">
                    <g transform="matrix(1.00627,0,0,1.00627,1016.010929,-640.260877)">
                        <path d="M1164.765,2940.997C1161.747,2936.242 1158.945,2931.425 1156.345,2926.57C1153.886,2921.977 1151.607,2917.35 1149.496,2912.707C1148.346,2910.179 1147.246,2907.647 1146.194,2905.113C1144.364,2900.707 1142.679,2896.298 1141.127,2891.901C1123.671,2842.456 1123.097,2794.669 1124.066,2772.408C1124.427,2764.137 1125,2759.389 1125,2759.389C1125,2759.389 1127.731,2758.71 1132.424,2757.465C1146.77,2753.66 1179.449,2744.573 1208.48,2733.475C1219.631,2729.212 1230.244,2724.652 1239.073,2719.981C1231.698,2731.114 1225.692,2743.591 1224.558,2755.31C1224.479,2756.128 1224.412,2756.938 1224.355,2757.739C1207.903,2764.344 1189.208,2770.202 1175.041,2774.307C1161.94,2778.103 1152.712,2780.399 1152.712,2780.399C1152.712,2780.399 1150.623,2797.689 1152.573,2822.734C1153.884,2839.582 1157.023,2859.941 1163.854,2880.907C1164.726,2883.583 1165.659,2886.269 1166.655,2888.959C1167.941,2892.432 1169.333,2895.911 1170.841,2899.383C1173.025,2904.413 1175.451,2909.43 1178.144,2914.393C1178.794,2915.592 1179.46,2916.788 1180.142,2917.98C1180.895,2919.297 1181.668,2920.609 1182.46,2921.917C1182.863,2922.581 1183.271,2923.244 1183.684,2923.905C1184.782,2918.844 1187.257,2913.465 1193.503,2908.019C1195.149,2906.585 1195.397,2904.118 1194.071,2902.384C1183.103,2888.035 1182.117,2871.243 1185.333,2855.554C1188.601,2839.609 1196.187,2824.742 1202.692,2814.361C1204.034,2822.592 1208.486,2830.861 1213.583,2835.495C1217.257,2838.836 1221.343,2840.342 1225.03,2839.75C1228.712,2839.16 1232.477,2836.524 1235.041,2830.226C1239.898,2818.299 1238.573,2807.197 1236.276,2794.864C1234.191,2783.675 1231.324,2771.378 1232.801,2756.108C1232.867,2755.432 1232.951,2754.755 1233.053,2754.075C1234.552,2744.087 1239.909,2733.661 1246.174,2724.258C1251.224,2716.678 1256.897,2709.765 1261.825,2704.268C1262.112,2703.948 1262.397,2703.632 1262.679,2703.322C1263.418,2703.154 1264.158,2702.996 1264.897,2702.848C1264.709,2704.335 1264.546,2705.824 1264.411,2707.312C1263.36,2718.892 1264.014,2730.515 1267.781,2742.433C1270.913,2752.343 1276.198,2762.458 1284.445,2772.921L1284.476,2772.96C1313.812,2809.273 1303.889,2842.194 1303.889,2842.194C1303.375,2843.856 1303.953,2845.662 1305.338,2846.715C1306.722,2847.768 1308.616,2847.844 1310.08,2846.905C1310.08,2846.905 1328.299,2835.686 1327.047,2804.651C1368.071,2857.471 1329.06,2905.559 1329.06,2905.559C1327.936,2906.937 1327.817,2908.878 1328.763,2910.382C1328.763,2910.382 1331.906,2915.433 1333.332,2923.369C1327.948,2932.974 1322.005,2941.894 1315.629,2950.035C1325.398,2913.491 1294.186,2894.878 1292.566,2884.643C1292.839,2886.721 1294.594,2901.69 1288.323,2900.8C1286.062,2900.479 1280.302,2894.008 1279.901,2889.324C1279.199,2881.126 1286.779,2861.59 1284.112,2851.616C1281.558,2842.064 1263.9,2829.484 1263.9,2829.484C1263.9,2829.484 1267.361,2850.364 1259.689,2861.453C1240.78,2882.384 1242.58,2898.505 1244.392,2904.095C1241.483,2900.502 1234.195,2895.513 1239.477,2878.667C1217.201,2905.583 1224.317,2926.211 1224.317,2926.211C1229.349,2942.943 1248.081,2961.139 1241.059,2979.539C1242.501,2980.376 1243.966,2981.199 1245.454,2982.006C1250.377,2984.676 1255.555,2987.181 1261.001,2989.5C1277.911,2982.298 1292.239,2973.307 1304.371,2963.131C1291.388,2976.869 1277.088,2987.606 1262.323,2994.707C1250.771,3000.262 1238.948,3003.557 1227.318,3004.202C1204.748,2989.637 1187.024,2972.115 1173.125,2953.222C1171.525,2951.048 1169.976,2948.856 1168.476,2946.647C1167.204,2944.775 1165.968,2942.891 1164.765,2940.997ZM1234.141,2975.303C1234.83,2975.748 1235.525,2976.189 1236.225,2976.627L1234.141,2975.303ZM1358.817,2777.64C1340.605,2772.678 1302.822,2761.635 1279.521,2749.576C1273.758,2737.315 1271.951,2725.459 1272.332,2713.709C1289.439,2725.279 1320.507,2736.674 1347.347,2745.189C1349.24,2748.824 1350.963,2752.63 1352.511,2756.588C1355.104,2763.216 1357.212,2770.261 1358.817,2777.64Z" style="fill:rgb(252,115,4);"/>
                    </g>
                    <g transform="matrix(0.809641,0.331861,-0.319268,0.841574,2353.768667,795.132205)">
                        <path d="M593.533,1384.396C586.633,1373.646 578.852,1364.07 570.355,1355.902C549.841,1336.183 525.152,1324.673 498.598,1324.673C456.33,1324.673 418.789,1353.836 395.291,1398.843C378.829,1413.406 360.697,1427.678 346.209,1438.641C370.81,1353.242 437.132,1292 515,1292C613.793,1292 694,1390.579 694,1512C694,1633.421 613.793,1732 515,1732C419.459,1732 341.3,1639.804 336.258,1523.913C347.662,1547.415 364.217,1575.403 387.287,1601.593C409.64,1656.27 451.14,1693.035 498.598,1693.035C516.57,1693.035 533.687,1687.763 549.233,1678.242C595.196,1650.095 627.43,1584.813 627.43,1508.854C627.43,1469.354 618.714,1432.741 603.883,1402.737C600.705,1396.308 597.247,1390.182 593.533,1384.396Z" style="fill:rgb(72,72,72);"/>
                    </g>
                </g>
            </g>
            <g transform="matrix(1,0,0,1,825,-100)">
                <path d="M959.85,1889L1035.135,1889L972.16,2017L925.298,2017L959.85,1889Z" style="fill:rgb(72,72,72);"/>
            </g>
        </g>
    </g>
</svg>
