<?xml version="1.0" encoding="UTF-8" standalone="no"?>
<!DOCTYPE svg PUBLIC "-//W3C//DTD SVG 1.1//EN" "http://www.w3.org/Graphics/SVG/1.1/DTD/svg11.dtd">
<svg width="100%" height="100%" viewBox="0 0 1980 462" version="1.1" xmlns="http://www.w3.org/2000/svg" xmlns:xlink="http://www.w3.org/1999/xlink" xml:space="preserve" xmlns:serif="http://www.serif.com/" style="fill-rule:evenodd;clip-rule:evenodd;stroke-linejoin:round;stroke-miterlimit:2;">
    <g transform="matrix(1,0,0,1,-260.474239,-1755.773889)">
        <g transform="matrix(1,0,0,1,103,345)">
            <g transform="matrix(3.038994,0,0,1.24729,-481.227673,-662.196268)">
                <path d="M243.536,1962.981L232.129,2027.8L210.169,2027.8L261.834,1747.8L282.912,1747.8L334.721,2027.8L312.386,2027.8L300.979,1962.981L243.536,1962.981ZM293.793,1922.144L272.258,1799.771L250.723,1922.144L293.793,1922.144Z" style="fill:rgb(72,72,72);"/>
                <path d="M349.392,2027.8L349.392,1747.8L399.6,1747.8C412.024,1747.8 422.94,1753.641 432.347,1765.322C441.755,1777.003 449.099,1793.302 454.381,1814.219C459.662,1835.135 462.303,1859.662 462.303,1887.8C462.303,1915.904 459.662,1940.423 454.381,1961.356C449.099,1982.29 441.755,1998.597 432.347,2010.278C422.94,2021.959 412.024,2027.8 399.6,2027.8L349.392,2027.8ZM370.698,1983.806L398.528,1983.806C407.145,1983.806 414.602,1979.821 420.899,1971.85C427.195,1963.879 432.089,1952.689 435.578,1938.278C439.068,1923.868 440.812,1907.042 440.812,1887.8C440.812,1868.292 439.068,1851.399 435.578,1837.122C432.089,1822.845 427.195,1811.721 420.899,1803.75C414.602,1795.779 407.145,1791.794 398.528,1791.794L370.698,1791.794L370.698,1983.806Z" style="fill:rgb(72,72,72);fill-rule:nonzero;"/>
                <path d="M644.521,1946.256L644.521,2027.8L623.214,2027.8L623.214,1747.8L670.18,1747.8C685.515,1747.8 697.54,1756.628 706.257,1774.284C714.973,1791.941 719.331,1816.34 719.331,1847.481C719.331,1867.919 717.364,1885.531 713.43,1900.319C709.496,1915.106 703.878,1926.459 696.577,1934.378C696.04,1934.961 695.495,1935.522 694.942,1936.062L721.366,2027.8L698.292,2027.8L674.876,1945.988C673.414,1946.167 671.919,1946.256 670.393,1946.256L644.521,1946.256ZM644.521,1903.263L669.503,1903.263C678.867,1903.263 685.932,1898.356 690.696,1888.544C695.461,1878.731 697.843,1865.044 697.843,1847.481C697.843,1829.685 695.461,1815.939 690.696,1806.241C685.932,1796.543 678.867,1791.694 669.503,1791.694L644.521,1791.694L644.521,1903.263Z" style="fill:rgb(72,72,72);"/>
                <g transform="matrix(0.787919,0.694214,-0.105279,0.709343,347.522158,19.381414)">
                    <path d="M737.43,1785.167C729.258,1786.367 721.41,1773.104 718.485,1751.212C714.91,1724.457 720.034,1694.879 729.92,1685.204C739.806,1675.529 751.673,1688.609 754.31,1716.151C757.476,1749.224 753.147,1846.303 753.147,1846.303L738.572,1860.743L737.43,1785.167Z" style="fill:rgb(72,72,72);"/>
                </g>
                <path d="M814.918,2031.763C805.954,2031.763 797.365,2028.631 789.153,2022.369C780.941,2016.106 774.411,2008.013 769.563,1998.087L777.038,1957.844C781.652,1966.74 787.348,1974.101 794.127,1979.928C800.906,1985.755 807.851,1988.669 814.962,1988.669C820.969,1988.669 825.826,1987.082 829.533,1983.909C833.24,1980.736 835.967,1976.391 837.715,1970.872C839.463,1965.353 840.336,1959.138 840.336,1952.225C840.336,1943.675 839.092,1936.83 836.603,1931.691C834.114,1926.551 830.862,1922.401 826.847,1919.241C822.833,1916.08 818.391,1913.193 813.523,1910.578C808.654,1907.964 803.782,1904.848 798.906,1901.231C794.031,1897.615 789.586,1892.914 785.572,1887.128C781.559,1881.343 778.307,1873.682 775.818,1864.147C773.329,1854.611 772.085,1842.377 772.085,1827.444C772.085,1812.198 773.749,1798.254 777.077,1785.612C780.404,1772.971 785.488,1762.848 792.327,1755.244C799.165,1747.64 807.828,1743.838 818.314,1743.838C825.227,1743.838 832.078,1745.954 838.868,1750.188C845.658,1754.421 851.586,1760.554 856.651,1768.587L849.856,1809.125C844.736,1801.496 839.45,1795.89 833.999,1792.306C828.548,1788.723 823.258,1786.931 818.13,1786.931C812.312,1786.931 807.546,1788.66 803.831,1792.119C800.117,1795.577 797.414,1800.148 795.722,1805.831C794.029,1811.515 793.183,1817.931 793.183,1825.081C793.183,1833.594 794.428,1840.411 796.917,1845.534C799.406,1850.657 802.657,1854.732 806.671,1857.759C810.685,1860.786 815.129,1863.657 820.005,1866.372C824.88,1869.086 829.752,1872.194 834.621,1875.694C839.49,1879.194 843.932,1883.778 847.946,1889.447C851.961,1895.116 855.212,1902.709 857.701,1912.228C860.19,1921.747 861.435,1933.84 861.435,1948.506C861.435,1963.485 859.747,1977.295 856.371,1989.934C852.996,2002.574 847.868,2012.705 840.988,2020.328C834.108,2027.951 825.418,2031.763 814.918,2031.763Z" style="fill:rgb(72,72,72);fill-rule:nonzero;"/>
            </g>
            <g transform="matrix(1.042964,0,0,1.042964,-6.715311,-904.371353)">
                <g transform="matrix(4.150757,-2.956774,1.597465,2.242541,-7704.350869,419.7769)">
                    <path d="M1206.912,2408.57C1206.863,2408.547 1206.815,2408.523 1206.766,2408.5C1223.993,2414.762 1236,2428.757 1236,2445C1236,2447.016 1235.815,2448.997 1235.458,2450.933C1235.467,2450.777 1235.474,2450.621 1235.481,2450.464C1235.786,2448.672 1235.943,2446.841 1235.943,2444.981C1235.943,2428.806 1224.029,2414.861 1206.912,2408.57Z" style="fill:rgb(72,72,72);"/>
                </g>
                <g transform="matrix(4.150757,-2.956774,1.597465,2.242541,-7704.350869,419.7769)">
                    <path d="M1137.029,2443.615C1137.671,2428.4 1148.851,2415.329 1164.85,2409.024C1159.05,2411.978 1154.242,2416.09 1150.926,2420.958C1147.752,2425.618 1145.946,2430.971 1145.946,2436.663C1145.946,2441.075 1147.032,2445.285 1149,2449.126C1150.599,2452.247 1152.78,2455.126 1155.434,2457.672C1162.846,2464.783 1173.945,2469.305 1186.341,2469.305C1199.824,2469.305 1211.774,2463.955 1219.113,2455.741C1221.522,2453.045 1223.434,2450.04 1224.741,2446.814C1226.035,2443.619 1226.736,2440.206 1226.736,2436.663C1226.736,2431.432 1225.21,2426.487 1222.499,2422.103C1219.017,2416.473 1213.581,2411.768 1206.912,2408.57C1224.029,2414.861 1235.943,2428.806 1235.943,2444.981C1235.943,2446.841 1235.786,2448.672 1235.481,2450.464C1232.169,2469.938 1211.474,2484.958 1186.471,2484.958C1159.741,2484.958 1137.934,2467.791 1137.028,2446.367C1137.01,2445.913 1137,2445.458 1137,2445C1137,2444.537 1137.01,2444.075 1137.029,2443.615Z" style="fill:rgb(72,72,72);"/>
                </g>
                <g transform="matrix(4.150757,-2.956774,1.597465,2.242541,-7704.350869,419.7769)">
                    <path d="M1220.393,2477.865C1220.466,2477.811 1220.539,2477.756 1220.611,2477.7C1210.376,2502.134 1189.992,2536.202 1156.802,2525.093C1151.478,2507.504 1148.964,2490.583 1148.35,2474.999C1150.516,2477.056 1152.936,2478.934 1155.569,2480.601C1156.357,2491.068 1158.22,2501.892 1161.584,2512.672C1168.927,2515.283 1175.669,2514.605 1181.759,2511.902L1183.879,2489.051C1184.594,2489.076 1185.314,2489.088 1186.037,2489.088C1188.939,2489.088 1191.782,2488.886 1194.548,2488.498L1193.105,2504.053C1198.727,2498.717 1203.537,2491.908 1207.463,2485.149C1212.251,2483.285 1216.612,2480.816 1220.393,2477.865Z" style="fill:rgb(72,72,72);"/>
                </g>
                <g transform="matrix(4.150757,-2.956774,1.597465,2.242541,-7704.350869,419.7769)">
                    <path d="M1207.463,2485.149C1207.528,2485.037 1207.593,2484.925 1207.657,2484.814C1212.35,2483.037 1216.642,2480.684 1220.393,2477.865C1216.612,2480.816 1212.251,2483.285 1207.463,2485.149Z" style="fill:rgb(72,72,72);"/>
                </g>
                <path d="M1121.887,2266.284C1125.383,2277.207 1132.042,2290.222 1144,2305C1179.662,2349.073 1166,2378 1166,2378C1166,2378 1186.932,2353.755 1175,2322C1175,2322 1209.381,2352.821 1208.003,2398.907C1200.644,2405.89 1192.799,2412.807 1184.509,2419.591C1183.447,2420.454 1182.366,2421.33 1181.272,2422.215C1174.81,2427.403 1168.088,2432.508 1161.125,2437.497C1155.546,2432.028 1151,2419 1151,2419C1150.395,2422.503 1150.127,2437.022 1144,2434C1137.873,2430.978 1140.316,2407.187 1142,2397C1143.684,2386.813 1125,2370 1125,2370C1125.943,2382.317 1131.354,2388.342 1116,2406C1100.646,2423.658 1106,2440 1106,2440C1097.792,2437.079 1101,2418 1101,2418C1074.32,2447.778 1092.517,2472.722 1095.583,2476.504C1067.591,2489.875 1040.89,2498.42 1017.902,2501.606L1045,2439C1045,2439 1023.805,2397.773 1068,2336C1068,2336 1064.063,2367.495 1081,2368C1097.937,2368.505 1092.251,2339.365 1092,2338C1089.937,2326.797 1087.303,2322.951 1087,2292C1086.979,2289.857 1087.108,2287.708 1087.367,2285.563C1090.852,2256.724 1117.929,2228.666 1122,2228C1122,2228 1114.103,2241.96 1121.887,2266.284ZM949.411,2431.939C934.191,2357.444 944.833,2296.19 944,2292C944,2292 1034.246,2273.07 1091.167,2243.353C1083.43,2258.152 1077.222,2274.397 1074.702,2290.857C1050.014,2301.511 1017.291,2313.334 977,2323C976.756,2323.059 974.548,2347.037 978.024,2381.948C981.391,2415.774 990.094,2459.865 1011.088,2502.404C994.883,2503.938 980.782,2502.594 969.725,2498.164C960.249,2475.689 953.77,2453.271 949.411,2431.939ZM1173.484,2245.564C1206.089,2262.034 1248.512,2275.058 1278.87,2283.193C1278.394,2294.165 1274.92,2306.504 1268.795,2319.643C1190.42,2298.777 1144.076,2270.729 1133.782,2264.09C1133.616,2262.987 1133.466,2261.899 1133.332,2260.827C1130.992,2242.12 1133.416,2228.195 1135.878,2219.774C1144.589,2229.052 1157.917,2237.7 1173.484,2245.564Z" style="fill:rgb(252,115,4);"/>
            </g>
        </g>
    </g>
</svg>
